<?xml version="1.0" encoding="utf-8"?>
<!-- Generator: Adobe Illustrator 24.3.0, SVG Export Plug-In . SVG Version: 6.00 Build 0)  -->
<svg version="1.1" id="Layer_1" xmlns="http://www.w3.org/2000/svg" xmlns:xlink="http://www.w3.org/1999/xlink" x="0px" y="0px"
	 viewBox="0 0 1080 1080" style="enable-background:new 0 0 1080 1080;" xml:space="preserve">
<g>
	<path style="fill:#277A49;" d="M547.31,721.32c0.54-52.35,16.63-99.92,45.07-143.52c26.76-41.01,61.89-73.61,102.33-100.77
		c6.83-4.59,6.88-4.57,4.88-12.79c-4.34-17.85-12.48-34.1-21.41-49.97c-22.68-40.32-50.62-76.95-79.8-112.67
		c-19.07-23.35-38.94-46.03-59.22-68.35c-2.14-2.35-3.25-3.15-5.82-0.41c-49.06,52.31-95.01,107.04-131.67,168.99
		c-11.99,20.26-22.25,41.35-29.37,63.89c-1.26,3.98-0.74,5.95,2.83,8.49c51.05,36.33,93.3,80.68,122.28,136.69
		c20.21,39.06,30.23,80.61,28.05,124.79c-0.14,2.81,0.47,5.87-4.43,4.95c-43.06-8.04-83.59-22.49-119.66-47.83
		c-33.8-23.74-58.01-54.63-68.62-95.14c-7.4-28.26-6.93-56.76-1.94-85.34c2.11-12.07,4.97-23.96,8.65-35.64
		c0.73-2.32,0.15-3.94-0.94-5.83c-21.42-37.24-28.59-77.65-25.98-120.03c3.59-58.19,25.65-109.86,57.05-158.05
		c32.03-49.15,72.02-91.25,115.82-129.92c15.96-14.09,32.44-27.55,49.22-40.65c2.19-1.71,3.63-2.21,6.12-0.23
		c65.87,52.34,124.01,111.79,168.53,183.66c22.28,35.96,39.24,74.2,47.27,116.05c9.92,51.7,3.24,100.95-21.65,147.5
		c-1.77,3.3-1.83,5.96-0.65,9.44c14.92,43.99,17.8,88.25,1.7,132.58c-13.78,37.93-39.93,65.7-73.54,86.9
		c-34.35,21.66-72.27,34.19-111.65,42.9c-2.91,0.64-3.43-0.45-3.44-2.74C547.3,732.6,547.31,726.96,547.31,721.32z M352.87,441.36
		c0.63-0.59,0.93-0.77,1.08-1.04c1.13-1.95,2.25-3.9,3.35-5.87c33.91-60.74,71.41-119.07,116.04-172.6
		c18.81-22.57,38.71-44.1,61.27-63.05c2.19-1.84,3.46-2.25,5.84,0.05c9.63,9.29,19.18,18.66,28.44,28.33
		c49.05,51.22,91.15,107.66,126.73,168.98c8.61,14.84,16.6,30,24.4,45.94c14.36-35.7,18.12-71.92,12.57-109.21
		c-5.18-34.8-17.3-67.24-34.11-97.95C658.83,162.53,603.2,103.94,539.6,52.3c-2.61-2.12-4.03-1.17-6.08,0.47
		c-20.02,16.02-39.47,32.7-57.96,50.48c-35,33.66-66.64,70.09-91.5,112c-31.03,52.33-50.06,107.95-45.07,169.85
		C340.55,404.49,344.75,423.27,352.87,441.36z M500.67,706.64c-1.53-23.47-6.69-46.16-14.99-68.11
		c-23.66-62.58-66.32-108.79-123.2-142.75c-3.51-2.1-4.15-0.67-4.82,2.27c-4.32,18.94-6.42,38.07-5.51,57.51
		c1.39,29.53,8.9,57.15,25.3,82.02c19.72,29.91,47.76,49.14,80.38,62.45c12.53,5.11,25.48,8.92,38.59,12.3
		c3.94,1.02,4.95-0.15,4.39-3.78C500.71,707.93,500.72,707.28,500.67,706.64z M722.84,552.87c0.08-18.37-3.01-36.24-8.12-53.8
		c-1.56-5.37-1.6-5.45-6.11-2.47c-43.03,28.44-78.18,64.43-103.91,109.29c-18.01,31.41-28.78,65.2-32.1,101.28
		c-0.19,2.07-2.95,7.03,3.52,5.17c31.71-9.07,61.23-22.63,87.29-43.05C701.18,639.71,722.7,601.71,722.84,552.87z"/>
	<path style="fill:#90CA6A;" d="M766.12,259.84c2.13,0.16,2.91,1.93,3.93,3.26c38.53,49.91,67.05,104.7,79.59,166.91
		c13.98,69.36,7.04,136.54-24.94,200.04c-36.19,71.85-93.13,121.27-167.9,150.24c-43.13,16.71-88.02,23.54-134.16,21.03
		c-88.38-4.81-163.46-39.61-225.96-101.86c-17.87-17.8-30.76-39.3-42.74-61.29c-19.42-35.63-31.7-73.62-35.73-114.04
		c-4.66-46.73,1.33-92.3,16.53-136.67c15.82-46.18,39.03-88.32,69.8-126.25c0.96-1.18,1.65-2.75,3.67-3.27
		c0.79,2.52-0.12,4.82-0.76,7c-2.07,7.11-4.27,14.18-6.55,21.22c-3.41,10.53-7.85,20.71-8.8,32.01c-0.55,6.58-3.13,12.93-7.22,18.25
		c-9.85,12.83-15.89,27.61-21.9,42.35c-15.52,38.1-23.46,77.79-21.49,118.94c3.46,72.18,29.2,135.64,78.1,188.95
		c16.38,17.86,37.07,30.98,57.62,43.81c31.69,19.79,65.53,34.44,102.2,42.17c49.99,10.54,98.98,6.24,147.18-9.91
		c20.36-6.82,40.17-15.11,59.02-25.23c14.03-7.53,26.28-18.07,38.49-28.38c31.75-26.79,58.52-57.67,77.58-94.83
		c21.53-41.98,30.56-86.68,28.21-133.68c-2.55-50.87-16.24-98.75-40.89-143.23c-5.33-9.62-8.41-19.07-9.63-29.82
		c-1.63-14.46-7.09-28.04-11.88-41.72C766.83,263.94,765.44,262.15,766.12,259.84z"/>
	<path style="fill:#8FC969;" d="M536.46,493.88c-33.15,0.03-60.01-26.84-59.98-59.99c0.03-33.02,26.74-59.91,59.52-59.92
		c33.63-0.02,60.54,26.65,60.51,59.94C596.48,467.05,569.64,493.85,536.46,493.88z"/>
</g>
<g>
	<path style="fill:#161515;" d="M213.29,1010.38c0-9.67-0.03-19.35,0.01-29.02c0.02-5.29,1.32-6.59,6.5-6.62
		c5.48-0.03,10.97-0.11,16.45,0.01c9.47,0.21,17.7,6.3,20.4,14.95c3.12,9.99,0.28,19.58-8.01,25.2c-2.56,1.74-2.53,2.64-0.95,5.03
		c4,6.02,7.62,12.29,11.41,18.45c1.71,2.78,2.35,5.66-0.99,7.47c-3.07,1.66-5.43,0.18-7.18-2.74c-3.96-6.62-8.34-13-12-19.78
		c-1.92-3.54-4.22-4.53-8.01-4.41c-7.94,0.26-7.95,0.08-7.95,8.24c0,4.03-0.02,8.06,0.01,12.09c0.02,3.55-0.05,7.23-4.96,7.06
		c-4.37-0.15-4.77-3.43-4.75-6.93C213.33,1029.73,213.29,1020.06,213.29,1010.38z M222.97,996.55c0,0.81,0,1.61,0,2.42
		c0,12.73,0,12.73,12.68,11.59c8.09-0.73,13.03-6.17,12.72-14c-0.31-7.96-5.56-13.19-13.47-13.36c-3.06-0.07-6.13,0.08-9.18-0.04
		c-2.06-0.08-2.86,0.64-2.78,2.77C223.07,989.46,222.97,993.01,222.97,996.55z"/>
	<path style="fill:#191717;" d="M552.95,1010.64c-0.02-26.2,24.19-43.85,47.79-34.83c3.19,1.22,6,3.09,8.71,5.11
		c2.32,1.73,3.62,3.98,1.62,6.6c-2.05,2.68-4.81,2.46-7.2,0.44c-3.79-3.19-7.91-5.41-12.94-5.72c-13.58-0.83-23.85,6.7-27.69,20.32
		c-4.34,15.37,3.88,31.27,18.39,35.49c6.87,2,13.31,0.77,19.39-2.81c1.11-0.65,2.12-1.46,3.2-2.16c2.39-1.53,4.86-2.25,6.72,0.61
		c1.73,2.67,0.63,4.98-1.71,6.67c-9.76,7.06-20.48,9.03-31.98,5.39C562.38,1041.06,552.96,1027.24,552.95,1010.64z"/>
	<path style="fill:#191717;" d="M495.24,1039.26c-10.6,8.5-20.77,9.45-29.85,3.28c-8.92-6.06-12.8-18.19-9.34-29.17
		c3.44-10.9,12.57-17.4,24.36-17.34c11.07,0.06,20.69,7.05,23.5,17.87c2.41,9.29,1.26,18.88,0.98,28.35
		c-0.07,2.48-1.75,4.12-4.48,4.14c-2.61,0.02-4.22-1.28-4.7-3.87C495.54,1041.62,495.45,1040.71,495.24,1039.26z M495.86,1021.58
		c0.12-9.8-6.49-17-15.69-17.09c-9.22-0.09-16.18,7.02-16.27,16.63c-0.09,9.33,6.68,16.65,15.57,16.82
		C488.87,1038.12,495.74,1031.25,495.86,1021.58z"/>
	<path style="fill:#141212;" d="M294.88,1024.13c-4.83,0-9.68,0.21-14.49-0.07c-3.97-0.23-3.77,1.32-2.54,4.16
		c3.71,8.59,14.63,12.34,23.73,8c1.15-0.55,2.18-1.36,3.35-1.88c2.46-1.1,4.75-0.95,6.32,1.53c1.63,2.57,0.13,4.32-1.88,5.62
		c-8.88,5.75-18.22,6.84-27.86,2.1c-9.56-4.7-13.68-12.81-13.4-23.15c0.47-17.31,14.98-28.03,31.42-23.6
		c10.29,2.77,15.77,12.23,15.71,23.26c-0.02,2.87-1.96,4.11-4.9,4.04C305.19,1024.05,300.04,1024.13,294.88,1024.13z
		 M277.22,1016.37c8.89,0,17.73-0.11,26.57,0.05c3.54,0.06,2.62-1.89,1.98-3.66c-2.12-5.91-7.99-8.91-15.82-8.2
		C283.02,1005.17,278.32,1009.44,277.22,1016.37z"/>
	<path style="fill:#141212;" d="M427.52,1024.13c-4.83,0-9.68,0.21-14.49-0.06c-3.95-0.23-3.78,1.3-2.55,4.16
		c3.71,8.59,14.63,12.35,23.73,8.01c1.15-0.55,2.18-1.36,3.35-1.88c2.46-1.1,4.75-0.96,6.32,1.53c1.63,2.57,0.14,4.32-1.87,5.63
		c-8.88,5.75-18.21,6.85-27.86,2.11c-9.56-4.7-13.68-12.8-13.41-23.15c0.47-17.31,14.98-28.03,31.42-23.6
		c10.28,2.77,15.77,12.21,15.71,23.26c-0.02,2.87-1.95,4.11-4.89,4.04C437.83,1024.05,432.68,1024.13,427.52,1024.13z
		 M423.74,1016.37c4.03,0,8.08-0.19,12.09,0.05c3.77,0.23,3.49-1.47,2.41-4c-2.34-5.47-7.04-8.15-14.1-7.94
		c-6.72,0.2-12.07,3.81-14.02,9.17c-0.84,2.29-0.2,2.81,2.01,2.75C416,1016.29,419.87,1016.37,423.74,1016.37z"/>
	<path style="fill:#141212;" d="M646.22,1024.13c-4.99,0-9.99,0.11-14.98-0.04c-2.82-0.09-3.24,0.74-2.3,3.33
		c2.91,8.06,12.57,12.61,21.47,9.85c1.37-0.42,2.77-0.95,3.96-1.72c2.94-1.91,6.07-3.34,8.28,0.46c2.3,3.96-1.49,5.38-3.98,6.81
		c-11.52,6.61-26.39,4.03-34.05-5.76c-7.37-9.42-6.82-24.53,1.23-33.43c6.43-7.12,17.78-9.75,27.05-6.26
		c8.25,3.1,13.8,11.94,13.78,21.89c-0.01,3.39-1.54,4.98-5.01,4.91C656.53,1024.05,651.38,1024.13,646.22,1024.13z M643.01,1016.37
		c3.87,0,7.75-0.19,11.61,0.05c3.75,0.24,3.52-1.43,2.43-3.99c-2.34-5.46-7.05-8.16-14.1-7.95c-6.75,0.19-12.06,3.78-14.03,9.16
		c-0.83,2.27-0.24,2.82,1.99,2.76C634.94,1016.29,638.98,1016.37,643.01,1016.37z"/>
	<path style="fill:#141212;" d="M800.44,1024.13c-4.99,0-9.99,0.12-14.98-0.05c-2.94-0.1-3.65,0.56-2.52,3.52
		c3.47,9.09,14.74,13.14,24.24,8.48c3.21-1.58,7.07-4.86,9.41,0.12c2.31,4.9-2.85,6.06-5.9,7.52c-11.83,5.64-26.03,2.25-32.84-7.59
		c-7.05-10.17-5.68-25.13,3.09-33.68c6.56-6.4,17.88-8.44,26.51-4.79c8.04,3.41,13.45,12.33,13.2,21.78
		c-0.08,3.06-1.46,4.76-4.75,4.71C810.75,1024.07,805.6,1024.13,800.44,1024.13z M797.04,1016.37c3.71,0,7.43-0.2,11.12,0.06
		c3.63,0.25,4.17-0.99,2.78-4.08c-2.51-5.59-7.27-8.22-14.64-7.86c-6.34,0.31-11.66,4.09-13.49,9.24c-0.87,2.44,0.09,2.71,2.14,2.67
		C788.97,1016.31,793.01,1016.37,797.04,1016.37z"/>
	<path style="fill:#191717;" d="M687.8,1001.36c6.23-5.04,12.93-6.3,20-4.97c10.32,1.95,16.45,9.65,17.04,21.53
		c0.37,7.55,0.14,15.14,0.07,22.71c-0.03,3.2-1.11,5.86-4.95,5.74c-3.86-0.12-4.55-2.78-4.52-6.03c0.07-7.09,0.23-14.18-0.03-21.26
		c-0.44-11.64-9.91-17.83-20.29-13.47c-4.94,2.07-7.6,5.69-7.58,11.16c0.03,7.73-0.04,15.46,0.03,23.19
		c0.03,3.34-0.31,6.35-4.58,6.41c-4.11,0.05-5-2.79-5-6.18c-0.01-12.72,0-25.45,0-38.17c0-2.99,0.74-5.52,4.24-5.95
		C685.63,995.65,687.26,997.56,687.8,1001.36z"/>
	<path style="fill:#191717;" d="M328.62,1019.86c0-2.95-0.05-5.05,0.01-7.14c0.1-3.53,0.74-7.09-4.97-6.62
		c-2.26,0.19-3.43-2.13-3.12-4.58c0.28-2.24,1.64-3.81,3.83-3.47c4.58,0.72,4.43-1.98,4.27-5.08c-0.13-2.57-0.17-5.17,0.04-7.73
		c0.24-2.91,1.7-4.87,4.96-4.68c3.22,0.18,4.44,2.09,4.38,5.14c-0.06,3.06,0.18,6.14-0.07,9.18c-0.22,2.68,0.87,3.36,3.28,3.12
		c1.6-0.16,3.22-0.06,4.83-0.01c2.29,0.08,3.57,1.36,3.8,3.58c0.25,2.4-0.81,4.02-3.19,4.68c-0.31,0.08-0.63,0.11-0.95,0.16
		c-2.48,0.4-6.06-1.27-7.21,0.77c-1.25,2.23-0.47,5.62-0.5,8.5c-0.04,4.35-0.1,8.71,0.02,13.06c0.17,6.08,2.76,8.74,8.85,8.87
		c2.91,0.06,4.75,1.06,4.88,4.03c0.13,3.16-1.75,4.53-4.78,4.78c-8.89,0.74-15.99-4.67-17.77-13.43
		C328.29,1028.34,328.83,1023.66,328.62,1019.86z"/>
	<path style="fill:#191717;" d="M520.31,1019.64c0-3.08-0.12-5.35,0.03-7.59c0.24-3.46,0.2-6.22-4.7-5.86
		c-2.24,0.16-3.63-1.85-3.43-4.37c0.2-2.49,1.61-4.13,4.05-3.76c4.3,0.65,4.22-1.82,4.08-4.79c-0.13-2.73-0.19-5.5,0.06-8.21
		c0.27-2.95,1.91-4.76,5.13-4.49c2.93,0.25,4.21,2,4.18,4.85c-0.01,1.29-0.03,2.58,0,3.87c0.06,2.72-0.77,6.02,0.49,7.99
		c1.26,1.96,4.76,0.5,7.27,0.68c2.51,0.17,3.92,1.36,4.1,3.82c0.19,2.7-1.26,4.29-3.87,4.59c-2.52,0.29-6.35-0.67-7.33,0.64
		c-1.83,2.44-0.56,6.18-0.64,9.37c-0.11,4.03-0.1,8.06,0,12.09c0.15,6.37,2.62,8.96,9.06,9.16c3,0.09,4.65,1.34,4.7,4.23
		c0.05,2.87-1.7,4.26-4.51,4.58c-8.71,0.97-16.2-4.52-18.02-13.14C519.96,1028.47,520.49,1023.63,520.31,1019.64z"/>
	<path style="fill:#191717;" d="M741.04,1019.79c0-2.89-0.08-5.15,0.02-7.4c0.16-3.48,0.66-6.79-4.84-6.24
		c-2.21,0.22-3.54-1.98-3.27-4.47c0.27-2.5,1.75-3.97,4.18-3.64c3.82,0.52,4.18-1.42,3.95-4.43c-0.21-2.72-0.18-5.49,0.01-8.22
		c0.2-2.88,1.53-4.94,4.83-4.83c3.2,0.1,4.58,1.91,4.52,4.99c-0.02,1.13-0.01,2.26,0,3.39c0.02,2.74-0.91,6.05,0.3,8.07
		c1.4,2.34,4.99,0.68,7.61,0.93c2.53,0.25,3.85,1.53,3.96,3.97c0.12,2.72-1.43,4.12-4.01,4.5c-2.5,0.36-6.25-1.18-7.25,0.66
		c-1.3,2.39-0.56,5.92-0.6,8.95c-0.05,4.35-0.13,8.71,0.03,13.06c0.22,5.78,2.9,8.47,8.69,8.53c3.17,0.03,5.09,1.2,5.05,4.37
		c-0.04,3.13-2.13,4.3-5.14,4.46c-9.02,0.49-15.74-4.83-17.49-13.78C740.73,1028.16,741.25,1023.65,741.04,1019.79z"/>
	<path style="fill:#1C1A1A;" d="M372.1,1001.97c4.96-4.41,10.51-6.54,16.93-5.91c1.74,0.17,3.52,0.53,5.14,1.17
		c2.38,0.93,3.65,2.82,2.73,5.39c-0.82,2.28-2.53,2.71-5.03,2.33c-4.1-0.62-8.28-1-12.39,0.51c-5.18,1.91-7.56,4.94-7.6,10.4
		c-0.06,8.07-0.05,16.13,0,24.2c0.02,3.34-0.3,6.26-4.64,6.35c-4.36,0.09-4.86-2.87-4.86-6.18c-0.01-12.58,0-25.16-0.01-37.75
		c0-3.05,0.21-5.98,4.15-6.43C370.66,995.57,371.79,998.22,372.1,1001.97z"/>
	<path style="fill:#1C1A1A;" d="M841.66,1001.96c4.96-4.43,10.52-6.44,16.95-5.96c1.97,0.15,3.82,0.57,5.56,1.44
		c2.19,1.09,3.06,2.92,2.28,5.2c-0.72,2.09-2.38,2.73-4.6,2.39c-4.29-0.65-8.59-1.1-12.85,0.44c-5.18,1.87-7.54,4.94-7.57,10.41
		c-0.06,8.23-0.05,16.45,0,24.68c0.02,3.29-0.72,5.77-4.67,5.85c-4.02,0.08-4.82-2.54-4.83-5.73c-0.03-12.74-0.01-25.49-0.01-38.23
		c0-3.05,0.23-5.96,4.18-6.41C840.23,995.57,841.31,998.26,841.66,1001.96z"/>
</g>
<g>
	<path style="fill:#141212;" d="M299.62,897.52c0,13.06,0.02,26.12-0.01,39.17c-0.01,5.99-1.74,8.24-6.24,8.28
		c-4.76,0.04-6.58-2.29-6.58-8.48c-0.01-10.16-0.12-20.31,0.07-30.47c0.06-2.97-0.7-3.76-3.71-3.73
		c-15.96,0.16-31.92,0.15-47.88,0.01c-3.03-0.03-4.12,0.59-4.05,3.89c0.23,10.15,0.1,20.31,0.08,30.47
		c-0.01,5.78-1.92,8.23-6.36,8.31c-4.74,0.08-6.88-2.41-6.89-8.32c-0.03-26.12-0.03-52.23,0-78.35c0.01-5.93,2.08-8.33,6.92-8.23
		c4.55,0.09,6.31,2.34,6.33,8.27c0.03,9.67,0.14,19.35-0.07,29.02c-0.07,3.1,0.93,3.71,3.81,3.68c16.12-0.14,32.24-0.13,48.36,0
		c2.79,0.02,3.48-0.84,3.44-3.52c-0.15-9.99-0.08-19.99-0.05-29.98c0.02-5.27,2.04-7.5,6.57-7.46c4.25,0.04,6.21,2.2,6.23,7.31
		C299.66,870.76,299.62,884.14,299.62,897.52z"/>
	<path style="fill:#0D0C0C;" d="M358.36,911.8c0-8.55,0.06-17.1-0.03-25.64c-0.03-3.24,0.9-5.99,4.12-6.83
		c3-0.78,6.33-0.7,7.86,2.83c0.87,2.01,1.56,1.54,3.01,0.66c11.42-6.89,22.21-6.05,31.73,2.73c2.05,1.89,2.74,0.78,4.17-0.41
		c6.96-5.78,14.94-7.92,23.86-6.2c10.37,2,17.66,9.67,18.1,20.26c0.55,13.04,0.39,26.11,0.38,39.16c-0.01,4.71-2.08,6.62-6.37,6.59
		c-4.14-0.03-6.33-2.16-6.37-6.71c-0.1-11.13-0.01-22.26-0.04-33.38c-0.02-9.67-4.67-15.03-13.01-15.09
		c-8.44-0.06-14.19,6.15-14.21,15.41c-0.03,10.64,0.01,21.29-0.02,31.93c-0.02,5.46-1.88,7.75-6.24,7.84
		c-4.76,0.1-6.55-1.98-6.57-7.87c-0.03-10.81,0.15-21.61-0.05-32.42c-0.21-11.65-9.13-18.08-18.97-13.79
		c-6.4,2.79-8.65,8.36-8.73,14.89c-0.12,10.32-0.03,20.64-0.04,30.96c0,6.17-1.52,8.2-6.11,8.22c-4.86,0.03-6.47-2.07-6.48-8.49
		C358.36,928.25,358.36,920.02,358.36,911.8z"/>
	<path style="fill:#141212;" d="M521.81,935.73c-10.76,9.87-22.56,12.14-35.24,6.66c-14.88-6.44-21.91-24.41-16.79-41.24
		c4.58-15.06,20.87-25.07,36.64-22.51c17.47,2.84,28.85,16.11,28.89,33.73c0.02,8.06,0.01,16.11,0,24.17
		c-0.01,5.77-1.58,8.09-5.64,8.43c-4.67,0.4-6.48-1.38-7.46-7.31C522.13,937.2,522.02,936.74,521.81,935.73z M501.64,933.58
		c12.36,0.03,21.35-9.17,21.31-21.8c-0.04-12.56-9.22-22.04-21.3-21.99c-11.81,0.04-21.47,10.15-21.28,22.24
		C480.57,924.38,489.61,933.55,501.64,933.58z"/>
	<path style="fill:#141212;" d="M636.04,935.73c-10.76,9.87-22.56,12.14-35.24,6.64c-14.87-6.44-21.9-24.42-16.78-41.25
		c4.58-15.06,20.88-25.07,36.65-22.5c17.47,2.85,28.84,16.11,28.88,33.74c0.02,8.06,0.01,16.11,0,24.17
		c-0.01,5.77-1.58,8.08-5.65,8.42c-4.67,0.39-6.47-1.38-7.45-7.32C636.37,937.19,636.25,936.74,636.04,935.73z M616.03,933.58
		c12.12-0.01,21.09-9.11,21.16-21.47c0.07-12.63-8.97-22.25-20.96-22.32c-11.89-0.08-21.5,9.67-21.61,21.91
		C594.49,924.08,603.79,933.58,616.03,933.58z"/>
	<path style="fill:#141212;" d="M780.37,935.5c-8.68,8.67-18.67,11.31-29.7,8.81c-14.64-3.33-24.16-16.52-24.16-32.53
		c0-15.85,11.14-29.72,26.2-32.62c17.13-3.3,32.15,4.45,38.54,19.86c1.81,4.37,2.55,8.93,2.55,13.63c0,8.06,0.02,16.11-0.01,24.17
		c-0.02,5.65-1.69,7.92-5.92,8.16c-4.48,0.26-6.23-1.48-7.17-7.11C780.63,937.39,780.57,936.92,780.37,935.5z M760.23,933.58
		c12.13,0,21.12-9.08,21.21-21.42c0.08-12.65-8.92-22.28-20.92-22.37c-11.9-0.09-21.5,9.59-21.66,21.86
		C738.7,924.01,748.01,933.57,760.23,933.58z"/>
	<path style="fill:#141313;" d="M835.22,945.76c-8.53-0.24-16.91-2.06-24.23-7.33c-4.28-3.08-5.1-6.57-2.53-9.77
		c2.82-3.5,6.65-3.73,10.53-0.4c7.1,6.09,15.21,7.31,23.96,4.94c3.16-0.86,5.95-2.55,6.33-6.43c0.4-4.13-2.22-6.21-5.4-7.69
		c-4.7-2.18-9.86-2.79-14.84-4.03c-3.61-0.9-7.09-2.07-10.28-3.99c-12.28-7.37-12.29-22.57,0.47-28.98
		c12.05-6.05,24.28-5.22,35.74,2.21c1.71,1.11,3.14,2.77,4.4,4.41c1.5,1.94,1.8,4.2,0.11,6.23c-1.55,1.86-3.57,2.57-6.03,2.01
		c-1.95-0.45-3.53-1.44-5.05-2.68c-6.33-5.13-13.51-5.52-20.98-3.37c-2.71,0.78-5.09,2.39-5.26,5.6c-0.16,3.13,1.81,4.94,4.45,6.25
		c4.96,2.46,10.49,2.86,15.69,4.46c3.21,0.99,6.5,1.9,9.5,3.37c12.36,6.06,13.77,21.24,2.84,29.68
		C849.01,944.63,842.4,945.63,835.22,945.76z"/>
	<path style="fill:#141313;" d="M690.87,925.15c6.3-14.07,12.31-27.53,18.38-40.96c1.1-2.43,1.98-5.08,5.59-5.14
		c5.96-0.1,8.37,3.44,5.8,9.25c-6.29,14.22-12.67,28.41-19.04,42.59c-5.65,12.58-11.31,25.14-17,37.7c-2.08,4.59-5.79,5.83-9.6,3.32
		c-3.36-2.21-2.67-5.13-1.38-8.06c3.17-7.19,6.29-14.4,9.7-21.48c1.45-3.02,1.46-5.41-0.22-8.46
		c-8.18-14.92-16.08-29.99-24.06-45.02c-1.32-2.48-2.39-4.98-0.35-7.66c1.58-2.07,3.75-2.29,6.07-2.12
		c2.91,0.22,3.93,2.57,5.01,4.68c6.57,12.85,13.08,25.73,19.61,38.6C689.75,923.11,690.14,923.8,690.87,925.15z"/>
	<path style="fill:#141313;" d="M562.95,889.03c0,10.3-0.02,20.61,0.01,30.91c0.01,2.89,0.2,5.78,1.4,8.48
		c1.26,2.83,3.51,4.15,6.55,3.91c4.25-0.34,6.33,1.67,6.54,5.78c0.2,3.88-2.27,6.44-6.47,6.84c-10.38,0.98-18.43-5.97-19.99-17.08
		c-1.2-8.5-0.61-17.03-0.67-25.54c-0.11-14.65-0.06-29.3-0.01-43.95c0.02-5.65,1.81-8.05,5.87-8.31c4.56-0.29,6.72,1.71,6.76,6.6
		C563,867.46,562.95,878.24,562.95,889.03z"/>
	<path style="fill:#0D0C0C;" d="M336.4,912.48c0,8.55,0.05,17.1-0.02,25.65c-0.04,4.8-1.93,6.73-6.11,6.85
		c-4.54,0.13-6.6-2.46-6.63-6.53c-0.12-17.59-0.12-35.17,0-52.76c0.03-4.02,1.95-6.72,6.55-6.6c4.31,0.11,6.14,1.91,6.19,6.76
		C336.46,894.73,336.4,903.6,336.4,912.48z"/>
	<path style="fill:#100F0F;" d="M330.1,851.04c4.77,0,8.14,3.31,8.21,8.09c0.08,4.96-3.42,8.45-8.4,8.39
		c-4.49-0.06-8.15-3.83-8.1-8.33C321.88,854.67,325.57,851.04,330.1,851.04z"/>
</g>
</svg>
